<svg xmlns="http://www.w3.org/2000/svg" viewBox="0 0 24 24" fill="currentColor">
  <path d="M12 0C5.37 0 0 5.37 0 12c0 5.3 3.438 9.8 8.205 11.387.6.113.82-.263.82-.583 0-.288-.01-1.05-.015-2.06-3.338.727-4.042-1.61-4.042-1.61-.546-1.387-1.333-1.756-1.333-1.756-1.09-.745.083-.73.083-.73 1.205.085 1.84 1.238 1.84 1.238 1.07 1.835 2.807 1.305 3.492.998.107-.775.418-1.305.762-1.605-2.665-.303-5.467-1.332-5.467-5.93 0-1.31.468-2.382 1.235-3.222-.123-.303-.535-1.523.117-3.176 0 0 1.008-.322 3.3 1.23a11.49 11.49 0 013.003-.403c1.02.005 2.045.138 3.003.403 2.29-1.552 3.297-1.23 3.297-1.23.653 1.653.241 2.873.118 3.176.77.84 1.234 1.912 1.234 3.222 0 4.61-2.807 5.625-5.48 5.922.43.372.815 1.103.815 2.222 0 1.606-.015 2.903-.015 3.296 0 .322.216.698.825.58C20.565 21.796 24 17.297 24 12 24 5.37 18.63 0 12 0z"/>
</svg>
