<svg xmlns="http://www.w3.org/2000/svg" viewBox="0 0 24 24" fill="currentColor">
  <path d="M20.52 3.48A11.88 11.88 0 0012 0C5.373 0 0 5.373 0 12c0 2.117.553 4.092 1.606 5.82L0 24l6.415-1.648A11.906 11.906 0 0012 24c6.627 0 12-5.373 12-12 0-3.184-1.236-6.168-3.48-8.52zM12 21.6c-1.53 0-3.03-.36-4.35-1.04l-.31-.17-3.8.98.98-3.71-.2-.32A8.4 8.4 0 013.6 12 8.4 8.4 0 0112 3.6c4.65 0 8.4 3.75 8.4 8.4S16.65 21.6 12 21.6zm4.58-6.65c-.25-.13-1.47-.73-1.7-.82-.23-.09-.4-.13-.57.13-.17.25-.66.82-.81.99-.15.17-.3.19-.55.07-.25-.13-1.06-.39-2.02-1.24-.75-.66-1.25-1.49-1.4-1.74-.15-.25-.02-.38.11-.51.11-.11.25-.29.37-.43.13-.14.17-.24.25-.4.08-.17.04-.31-.02-.43-.06-.12-.57-1.37-.78-1.88-.21-.49-.43-.42-.57-.43-.15-.01-.32-.01-.49-.01-.17 0-.44.06-.67.31-.23.24-.88.86-.88 2.09 0 1.23.9 2.42 1.03 2.58.13.17 1.78 2.72 4.31 3.81 2.53 1.09 2.53.73 2.99.68.46-.05 1.47-.6 1.68-1.18.21-.59.21-1.09.15-1.18-.06-.09-.23-.13-.48-.26z"/>
</svg>
